<svg xmlns="http://www.w3.org/2000/svg" width="100%" height="100%" viewBox="0 0 500 500" fill-rule="nonzero" stroke-linejoin="round" stroke-miterlimit="2" xmlns:v="https://vecta.io/nano">
    <style>
        .fg{fill:#000;}
        @media(prefers-color-scheme: dark){
            .fg{fill:#fff;}
        }
    </style>
    <path class="fg" d="M328.012 120.501c-1.95 7.021-3.901 12.872-5.071 17.943s-2.34 9.751-3.12 14.042l-34.325 194.639c0 9.751 13.262 14.432 39.396 14.432l-3.511 22.233H171.989c.39-2.73 1.17-6.241 1.95-10.922.39-4.681 1.17-8.581 1.56-11.312 33.155 0 50.317-5.461 52.268-16.772l28.864-161.094h-53.048l1.95-21.063c37.446-.78 65.92-16.382 85.033-46.417l37.446 4.291z"/>
    <path class="fg" d="M462.278 187.427c0 43.061-5.383 82.758-15.475 119.09-10.765 36.333-26.24 67.956-46.425 94.196-20.858 26.24-45.752 47.098-75.357 61.9-30.277 14.802-63.919 22.203-102.27 22.203-31.623 0-59.209-2.691-82.085-7.401-23.549-5.383-42.388-14.129-57.863-26.913s-26.24-29.604-33.641-50.462-11.438-47.771-11.438-80.066c0-45.752 5.383-87.468 16.821-125.146s27.586-69.974 49.116-96.214c20.858-26.24 47.098-47.098 77.375-61.9 30.277-14.129 64.591-21.53 102.943-21.53 30.277 0 56.518 2.691 78.721 8.074 22.203 6.055 41.042 15.475 55.845 28.259 14.802 13.457 25.567 30.95 32.969 53.153s10.765 49.789 10.765 82.758zM279.269 61.609c-16.821 0-31.623 4.71-45.079 13.457-13.457 9.42-25.567 21.53-35.66 36.333-10.765 14.802-20.185 31.623-27.586 50.462-8.074 19.512-14.802 39.024-19.512 58.536s-8.747 39.024-10.765 57.863c-2.691 19.512-4.037 36.333-4.037 51.135 0 20.858 1.346 37.678 4.71 51.135 2.691 14.129 7.401 24.895 14.129 32.969 6.728 8.747 15.475 14.129 26.24 17.494 10.765 4.037 24.222 5.383 39.697 5.383 24.222 0 45.079-8.074 63.246-24.895 17.494-16.821 32.296-37.678 43.734-62.573s20.185-53.153 26.24-83.431c5.383-30.277 8.074-58.536 8.074-85.449 0-41.042-6.055-70.647-18.166-90.159-12.111-18.839-33.641-28.259-65.264-28.259z"/>
</svg>